<?xml version="1.0" encoding="UTF-8" standalone="no"?>
<svg
   width="219.718mm"
   height="34.673mm"
   version="1.1"
   viewBox="0 0 219.718 34.673"
   id="svg1"
   sodipodi:docname="Wii.svg"
   inkscape:version="1.4 (e7c3feb100, 2024-10-09)"
   xmlns:inkscape="http://www.inkscape.org/namespaces/inkscape"
   xmlns:sodipodi="http://sodipodi.sourceforge.net/DTD/sodipodi-0.dtd"
   xmlns="http://www.w3.org/2000/svg"
   xmlns:svg="http://www.w3.org/2000/svg"
   xmlns:rdf="http://www.w3.org/1999/02/22-rdf-syntax-ns#"
   xmlns:cc="http://creativecommons.org/ns#"
   xmlns:dc="http://purl.org/dc/elements/1.1/">
  <defs
     id="defs1">
    <rect
       x="286.8132"
       y="58.241756"
       width="285.71429"
       height="229.67033"
       id="rect1" />
  </defs>
  <sodipodi:namedview
     id="namedview1"
     pagecolor="#ffffff"
     bordercolor="#000000"
     borderopacity="0.25"
     inkscape:showpageshadow="2"
     inkscape:pageopacity="0.0"
     inkscape:pagecheckerboard="0"
     inkscape:deskcolor="#d1d1d1"
     inkscape:document-units="mm"
     inkscape:zoom="9.46"
     inkscape:cx="846.24736"
     inkscape:cy="127.27273"
     inkscape:window-width="1920"
     inkscape:window-height="1011"
     inkscape:window-x="0"
     inkscape:window-y="32"
     inkscape:window-maximized="1"
     inkscape:current-layer="g1" />
  <metadata
     id="metadata1">
    <rdf:RDF>
      <cc:Work
         rdf:about="">
        <dc:format>image/svg+xml</dc:format>
        <dc:type
           rdf:resource="http://purl.org/dc/dcmitype/StillImage" />
      </cc:Work>
    </rdf:RDF>
  </metadata>
  <g
     transform="translate(-75.415,-84.916)"
     id="g1">
    <path
       d="m 115.0184,86.812 -6.1207,23.996 c 0,0 -4.6796,-18.012 -5.4409,-20.567 -0.76164,-2.559 -2.3283,-3.6802 -4.5505,-3.6802 -2.2228,0 -3.7924,1.1211 -4.5536,3.6802 -0.75812,2.5548 -5.4391,20.567 -5.4391,20.567 L 82.789,86.812 h -7.3748 c 0,0 7.0831,25.602 8.0458,28.568 0.74895,2.3142 2.5231,4.2062 5.153,4.2062 3.0071,0 4.4132,-2.1922 5.0645,-4.2062 0.64417,-2.0024 5.2289,-18.912 5.2289,-18.912 0,0 4.5847,16.91 5.2275,18.912 0.65053,2.014 2.057,4.2062 5.0631,4.2062 2.6321,0 4.403,-1.8919 5.1566,-4.2062 0.96062,-2.9651 8.0388,-28.568 8.0388,-28.568 z m 25.286,32.527 h 6.9818 V 96.756 h -6.9818 z M 139.62771,88.86 c 0,2.1766 1.8362,3.9434 4.0908,3.9434 2.346,0 4.1836,-1.7304 4.1836,-3.9434 0,-2.2137 -1.8376,-3.9479 -4.1836,-3.9479 -2.2546,0 -4.0908,1.7692 -4.0908,3.9479 m -13.51,30.479 h 6.9797 V 96.756 h -6.9797 z M 125.439,88.86 c 0,2.1766 1.8327,3.9434 4.0887,3.9434 2.3446,0 4.1857,-1.7304 4.1857,-3.9434 0,-2.2137 -1.8412,-3.9479 -4.1857,-3.9479 -2.256,0 -4.0887,1.7692 -4.0887,3.9479"
       fill="#a1a0a4"
       id="path1"
       sodipodi:nodetypes="cccscccccscccscccccccccssscccccccsssc" />
    <path
       style="font-size:44.1178px;font-family:OCR-A;-inkscape-font-specification:OCR-A;fill:none;stroke:#fd0000;stroke-width:1.55275;stroke-linecap:round;stroke-linejoin:round;stroke-dasharray:none"
       d="m 159.89226,91.679888 c -0.1681,-0.252161 -0.6304,-0.756484 -0.6304,-1.134727 0,-0.714458 0.96661,-0.588377 1.42892,-0.588377 h 8.90971 c 1.30283,0 2.01729,0.210135 2.01729,1.639051 0,1.176754 0.75648,1.975266 2.01729,1.975266 1.51298,0 2.18541,-1.0927 2.18541,-2.437562 0,-1.470943 -0.88257,-3.02594 -1.97528,-3.99256 -1.21878,-1.050673 -2.56364,-1.386889 -4.16066,-1.386889 h -8.90971 c -1.34486,0 -2.31148,0 -3.48824,0.756485 -1.42892,0.924593 -2.22743,2.353509 -2.22743,4.034586 0,1.470943 0.50433,2.311482 1.38689,3.446209 l 14.41525,18.53388 c 0.16811,0.25216 0.75648,0.88256 0.75648,1.21878 0,0.63041 -1.05068,0.50432 -1.38689,0.50432 h -9.11984 c -1.17676,0 -1.84919,-0.16811 -1.84919,-1.42891 0,-1.13473 -0.75649,-2.14337 -1.97527,-2.14337 -1.47094,0 -2.22743,1.17675 -2.22743,2.52161 0,1.47094 0.84055,2.98392 1.97527,3.90851 1.26081,1.05067 2.6477,1.34486 4.24473,1.34486 h 9.24592 c 2.89986,0 5.2954,-1.59702 5.2954,-4.74904 0,-1.42892 -0.63041,-2.39554 -1.47095,-3.48824 z m 34.04179,8.153227 h 6.76634 c 1.17676,0 2.77379,-0.252162 2.77379,-2.017293 0,-1.723105 -1.42893,-2.017293 -2.77379,-2.017293 h -6.76634 v -4.118641 c 0,-1.386889 -0.29419,-2.773778 -2.01729,-2.773778 -1.72311,0 -2.01729,1.386889 -2.01729,2.773778 v 4.118641 h -1.30283 c -1.34487,0 -2.77379,0.294188 -2.77379,2.017293 0,1.765131 1.59703,2.017293 2.77379,2.017293 h 1.30283 v 10.969035 c 0,2.1854 -0.0841,3.9085 1.47094,5.63161 1.42892,1.55499 3.19405,2.01729 5.21134,2.01729 h 2.05932 c 2.14338,0 4.07662,-0.29419 5.54756,-2.05932 0.67243,-0.79851 1.38689,-2.22743 1.38689,-3.36216 0,-1.13472 -0.92459,-2.01728 -2.05932,-2.01728 -1.00865,0 -1.76514,0.67242 -2.0173,1.63904 -0.42026,1.63905 -1.17676,1.76513 -2.8158,1.76513 h -2.05932 c -2.77378,0 -2.68973,-1.30283 -2.68973,-3.57228 z m 39.12706,18.617935 c 1.17675,0 2.77378,-0.25217 2.77378,-2.01729 0,-1.72311 -1.42892,-2.0173 -2.77378,-2.0173 h -8.65754 c -1.34487,0 -2.14339,-0.16811 -2.68973,-0.75649 l -1.00865,-1.09269 c -0.2942,-0.29419 -0.58838,-0.79852 -0.58838,-1.17676 v -1.34486 h 12.9443 c 2.39553,0 2.77378,-0.67243 2.77378,-2.98392 v -3.23606 c 0,-2.22743 -0.25216,-3.78243 -2.10135,-5.253374 l -1.63905,-1.302834 c -1.55501,-1.260809 -2.47959,-1.470943 -4.45486,-1.470943 h -3.69836 c -1.63905,0 -2.56366,0.04203 -4.45487,1.681078 l -1.42891,1.21878 c -1.68107,1.428913 -1.97526,2.689723 -1.97526,4.833093 v 7.77499 c 0,2.1854 0.4623,3.10999 2.05932,4.53891 l 1.7231,1.51297 c 1.26081,1.0927 1.93324,1.0927 3.61431,1.0927 z m -12.9443,-15.2978 c 0,-1.17676 0.33622,-1.47095 0.84054,-1.84919 l 1.38689,-1.00865 c 0.67243,-0.462295 1.30284,-0.462295 2.05933,-0.462295 h 3.40417 c 0.6304,0 1.42891,0.04208 1.93325,0.504325 l 1.55499,1.34486 c 0.54635,0.50432 0.50433,1.13473 0.50433,1.89122 v 2.43755 h -11.6835 z m 37.99233,-3.320135 c 2.89986,0 3.57229,0.504325 3.57229,3.530265 v 0.92459 h -8.65755 c -1.76513,0 -3.32014,0.29418 -4.70702,1.51297 -1.51297,1.34486 -1.97526,2.56365 -1.97526,4.49688 v 1.76514 c 0,2.10134 0.42027,3.57229 2.10134,4.95918 1.47094,1.21877 2.77378,1.42891 4.58094,1.42891 h 3.86648 c 1.30283,0 1.34486,0 2.47959,-0.58838 l 2.77377,-1.42891 c -0.042,1.13472 1.00865,2.01729 2.05933,2.01729 1.34486,0 1.93323,-1.17675 1.89121,-2.35351 l -0.42027,-13.70078 c -0.042,-2.0173 -0.25217,-3.236076 -1.80716,-4.791073 -1.59702,-1.597024 -3.10999,-1.807158 -5.21134,-1.807158 h -5.54755 c -1.34487,0 -2.77379,0.294188 -2.77379,2.017293 0,1.765131 1.59703,2.017293 2.77379,2.017293 z m 0.92459,8.489445 c 2.22743,0 2.85784,0.67243 2.85784,2.89986 v 0.88256 l -4.45486,2.31148 h -4.45486 c -0.96662,0 -2.60567,-0.29418 -2.60567,-1.63905 v -2.68972 c 0,-1.47094 1.59703,-1.76513 2.68972,-1.76513 z m 29.54491,-18.029561 c 0,-2.395535 -0.67243,-2.815804 -2.98391,-2.815804 h -4.24472 c -1.34486,0 -2.77378,0.294188 -2.77378,2.017293 0,1.765131 1.59702,2.017293 2.77378,2.017293 h 3.19405 v 22.904679 h -3.19405 c -1.34486,0 -2.77378,0.29419 -2.77378,2.0173 0,1.76512 1.59702,2.01729 2.77378,2.01729 h 10.25457 c 1.17675,0 2.77378,-0.25217 2.77378,-2.01729 0,-1.72311 -1.42892,-2.0173 -2.77378,-2.0173 h -3.02594 z"
       id="text2"
       aria-label="Steal"
       inkscape:label="path2" />
  </g>
</svg>
